# xmcd
#
# Track frame offsets:
#	150
#	20217
#	33272
#	50597
#	63917
#	77920
#	90357
#	100842
#	117477
#	137512
#	150537
#	167862
#	181172
#	195130
#	207535
#	218000
#
# Disc length: 3128 seconds
#
# Revision: 1
# Processed by: cddbd v1.5.2PL0 Copyright (c) Steve Scherf et al.
# Submitted via: audiograbber 1.83.01
#
DISCID=d20c3610
DTITLE=Various Artist - SC2087
DYEAR=1900
DGENRE=
TTITLE0=Tom T. Hall - Old Dogs, Children, and Watermellon Wine
TTITLE1=Ernest Tubb - Walking The Floor Over You
TTITLE2=Ronnie Milsap - Smoky Mountain Rain
TTITLE3=Merle Haggard - Okie From Muskogee
TTITLE4=Roy Acuff - Wabash Cannonball
TTITLE5=Conway Twitty - It's Only Make Believe
TTITLE6=Charley Pride - Kiss An Angel Good Mornin'
TTITLE7=Waylon Jennings - Luckenbach Texas (Back To The Basics Of Love)
TTITLE8=Tom T. Hall - Old Dogs, Children, and Watermellon Wine (Vocal)
TTITLE9=Ernest Tubb - Walking The Floor Over You (Vocal)
TTITLE10=Ronnie Milsap - Smoky Mountain Rain (Vocal)
TTITLE11=Merle Haggard - Okie From Muskogee (Vocal)
TTITLE12=Roy Acuff - Wabash Cannonball (Vocal)
TTITLE13=Conway Twitty - It's Only Make Believe (Vocal)
TTITLE14=Charley Pride - Kiss An Angel Good Mornin' (Vocal)
TTITLE15=Waylon Jennings - Luckenbach Texas (Back To The Basics Of Love) (Vocal
TTITLE15=)
EXTD=racks 9 - 16 Have Demonstration Vocals
EXTT0=
EXTT1=
EXTT2=
EXTT3=
EXTT4=
EXTT5=
EXTT6=
EXTT7=
EXTT8=Demonstration Vocals
EXTT9=Demonstration Vocals
EXTT10=Demonstration Vocals
EXTT11=Demonstration Vocals
EXTT12=Demonstration Vocals
EXTT13=Demonstration Vocals
EXTT14=Demonstration Vocals
EXTT15=Demonstration Vocals
PLAYORDER=
